<mxfile host="app.diagrams.net" agent="Mozilla/5.0 (Windows NT 10.0; Win64; x64) AppleWebKit/537.36 (KHTML, like Gecko) Chrome/131.0.0.0 Safari/537.36" version="24.8.6">
  <diagram name="Side-1" id="Y83v_ZjxbPqoGcF2XBOz">
    <mxGraphModel dx="1195" dy="650" grid="1" gridSize="5" guides="1" tooltips="1" connect="1" arrows="1" fold="1" page="1" pageScale="1" pageWidth="827" pageHeight="1169" math="0" shadow="0">
      <root>
        <mxCell id="0" />
        <mxCell id="1" parent="0" />
        <mxCell id="CzOxM3u5IwbkqvRklhfL-35" value="" style="rounded=0;whiteSpace=wrap;html=1;fillColor=none;dashed=1;" vertex="1" parent="1">
          <mxGeometry x="75" y="420" width="590" height="140" as="geometry" />
        </mxCell>
        <mxCell id="CzOxM3u5IwbkqvRklhfL-1" value="&lt;font style=&quot;font-size: 16px;&quot;&gt;PARALLEL_SERIES_CONVERTER&lt;/font&gt;" style="swimlane;whiteSpace=wrap;html=1;startSize=30;" vertex="1" parent="1">
          <mxGeometry x="280" y="160" width="300" height="170" as="geometry" />
        </mxCell>
        <mxCell id="CzOxM3u5IwbkqvRklhfL-2" value="i_SET" style="text;html=1;align=center;verticalAlign=middle;whiteSpace=wrap;rounded=0;" vertex="1" parent="CzOxM3u5IwbkqvRklhfL-1">
          <mxGeometry y="30" width="50" height="30" as="geometry" />
        </mxCell>
        <mxCell id="CzOxM3u5IwbkqvRklhfL-3" value="i_DATA_A" style="text;html=1;align=center;verticalAlign=middle;whiteSpace=wrap;rounded=0;" vertex="1" parent="CzOxM3u5IwbkqvRklhfL-1">
          <mxGeometry y="60" width="70" height="30" as="geometry" />
        </mxCell>
        <mxCell id="CzOxM3u5IwbkqvRklhfL-4" value="i_DATA_B" style="text;html=1;align=center;verticalAlign=middle;whiteSpace=wrap;rounded=0;" vertex="1" parent="CzOxM3u5IwbkqvRklhfL-1">
          <mxGeometry y="90" width="70" height="30" as="geometry" />
        </mxCell>
        <mxCell id="CzOxM3u5IwbkqvRklhfL-5" value="i_RESET" style="text;html=1;align=center;verticalAlign=middle;whiteSpace=wrap;rounded=0;rotation=0;" vertex="1" parent="CzOxM3u5IwbkqvRklhfL-1">
          <mxGeometry x="230" y="140" width="70" height="30" as="geometry" />
        </mxCell>
        <mxCell id="CzOxM3u5IwbkqvRklhfL-6" value="i_CLK" style="text;html=1;align=center;verticalAlign=middle;whiteSpace=wrap;rounded=0;" vertex="1" parent="CzOxM3u5IwbkqvRklhfL-1">
          <mxGeometry y="140" width="50" height="30" as="geometry" />
        </mxCell>
        <mxCell id="CzOxM3u5IwbkqvRklhfL-7" value="o_DATA" style="text;html=1;align=center;verticalAlign=middle;whiteSpace=wrap;rounded=0;" vertex="1" parent="CzOxM3u5IwbkqvRklhfL-1">
          <mxGeometry x="235" y="60" width="65" height="30" as="geometry" />
        </mxCell>
        <mxCell id="CzOxM3u5IwbkqvRklhfL-8" value="o_SET" style="text;html=1;align=center;verticalAlign=middle;whiteSpace=wrap;rounded=0;" vertex="1" parent="CzOxM3u5IwbkqvRklhfL-1">
          <mxGeometry x="245" y="30" width="55" height="30" as="geometry" />
        </mxCell>
        <mxCell id="CzOxM3u5IwbkqvRklhfL-10" value="&lt;font style=&quot;font-size: 16px;&quot;&gt;&amp;nbsp; logic_reset&lt;/font&gt;" style="swimlane;whiteSpace=wrap;html=1;align=left;startSize=25;" vertex="1" parent="1">
          <mxGeometry x="620" y="340" width="120" height="60" as="geometry" />
        </mxCell>
        <mxCell id="CzOxM3u5IwbkqvRklhfL-14" value="RESET" style="text;html=1;align=center;verticalAlign=middle;whiteSpace=wrap;rounded=0;rotation=0;" vertex="1" parent="CzOxM3u5IwbkqvRklhfL-10">
          <mxGeometry y="25" width="60" height="30" as="geometry" />
        </mxCell>
        <mxCell id="CzOxM3u5IwbkqvRklhfL-16" style="edgeStyle=orthogonalEdgeStyle;rounded=0;orthogonalLoop=1;jettySize=auto;html=1;entryX=0;entryY=0.5;entryDx=0;entryDy=0;" edge="1" parent="1" source="CzOxM3u5IwbkqvRklhfL-12" target="CzOxM3u5IwbkqvRklhfL-6">
          <mxGeometry relative="1" as="geometry" />
        </mxCell>
        <mxCell id="CzOxM3u5IwbkqvRklhfL-12" value="200 MHz" style="text;html=1;align=center;verticalAlign=middle;whiteSpace=wrap;rounded=0;" vertex="1" parent="1">
          <mxGeometry x="180" y="365" width="60" height="30" as="geometry" />
        </mxCell>
        <mxCell id="CzOxM3u5IwbkqvRklhfL-15" style="edgeStyle=orthogonalEdgeStyle;rounded=0;orthogonalLoop=1;jettySize=auto;html=1;entryX=1;entryY=0.5;entryDx=0;entryDy=0;" edge="1" parent="1" source="CzOxM3u5IwbkqvRklhfL-14" target="CzOxM3u5IwbkqvRklhfL-5">
          <mxGeometry relative="1" as="geometry" />
        </mxCell>
        <mxCell id="CzOxM3u5IwbkqvRklhfL-17" value="&lt;font style=&quot;font-size: 16px;&quot;&gt;adc_control&amp;nbsp;&amp;nbsp;&lt;/font&gt;" style="swimlane;whiteSpace=wrap;html=1;align=right;startSize=30;" vertex="1" parent="1">
          <mxGeometry x="75" y="160" width="125" height="130" as="geometry" />
        </mxCell>
        <mxCell id="CzOxM3u5IwbkqvRklhfL-19" value="o_DATA_A" style="text;html=1;align=center;verticalAlign=middle;whiteSpace=wrap;rounded=0;" vertex="1" parent="CzOxM3u5IwbkqvRklhfL-17">
          <mxGeometry x="45" y="30" width="80" height="30" as="geometry" />
        </mxCell>
        <mxCell id="CzOxM3u5IwbkqvRklhfL-20" value="o_DATA_B" style="text;html=1;align=center;verticalAlign=middle;whiteSpace=wrap;rounded=0;" vertex="1" parent="CzOxM3u5IwbkqvRklhfL-17">
          <mxGeometry x="45" y="60" width="80" height="30" as="geometry" />
        </mxCell>
        <mxCell id="CzOxM3u5IwbkqvRklhfL-23" value="o_DATA_RDY" style="text;html=1;align=center;verticalAlign=middle;whiteSpace=wrap;rounded=0;" vertex="1" parent="CzOxM3u5IwbkqvRklhfL-17">
          <mxGeometry x="30" y="90" width="95" height="30" as="geometry" />
        </mxCell>
        <mxCell id="CzOxM3u5IwbkqvRklhfL-18" value="o_DATA_A = &lt;i&gt;ADC_A_DATA_ADC_CONTROL_TO_ADC_SAMPLE_COUNTER&lt;/i&gt;" style="text;html=1;align=center;verticalAlign=middle;whiteSpace=wrap;rounded=0;" vertex="1" parent="1">
          <mxGeometry x="100" y="460" width="440" height="30" as="geometry" />
        </mxCell>
        <mxCell id="CzOxM3u5IwbkqvRklhfL-21" value="o_DATA_B = &lt;i&gt;ADC_B_DATA_ADC_CONTROL_TO_ADC_SAMPLE_COUNTER&lt;/i&gt;" style="text;html=1;align=center;verticalAlign=middle;whiteSpace=wrap;rounded=0;" vertex="1" parent="1">
          <mxGeometry x="100" y="490" width="440" height="30" as="geometry" />
        </mxCell>
        <mxCell id="CzOxM3u5IwbkqvRklhfL-22" value="o_DATA_RDY = &lt;i&gt;ADC_A_AND_B_DATA_READY_ADC_CONTROL_TO_ADC_SAMPLE_COUNTER&lt;/i&gt;" style="text;html=1;align=center;verticalAlign=middle;whiteSpace=wrap;rounded=0;" vertex="1" parent="1">
          <mxGeometry x="100" y="520" width="555" height="30" as="geometry" />
        </mxCell>
        <mxCell id="CzOxM3u5IwbkqvRklhfL-24" style="edgeStyle=orthogonalEdgeStyle;rounded=0;orthogonalLoop=1;jettySize=auto;html=1;" edge="1" parent="1" source="CzOxM3u5IwbkqvRklhfL-19" target="CzOxM3u5IwbkqvRklhfL-2">
          <mxGeometry relative="1" as="geometry" />
        </mxCell>
        <mxCell id="CzOxM3u5IwbkqvRklhfL-25" style="edgeStyle=orthogonalEdgeStyle;rounded=0;orthogonalLoop=1;jettySize=auto;html=1;" edge="1" parent="1" source="CzOxM3u5IwbkqvRklhfL-20" target="CzOxM3u5IwbkqvRklhfL-3">
          <mxGeometry relative="1" as="geometry" />
        </mxCell>
        <mxCell id="CzOxM3u5IwbkqvRklhfL-26" style="edgeStyle=orthogonalEdgeStyle;rounded=0;orthogonalLoop=1;jettySize=auto;html=1;" edge="1" parent="1" source="CzOxM3u5IwbkqvRklhfL-23" target="CzOxM3u5IwbkqvRklhfL-4">
          <mxGeometry relative="1" as="geometry" />
        </mxCell>
        <mxCell id="CzOxM3u5IwbkqvRklhfL-36" value="&lt;span style=&quot;font-size: 16px;&quot;&gt;&lt;b&gt;adc_control VHDL file names&lt;/b&gt;&lt;/span&gt;" style="text;html=1;align=center;verticalAlign=middle;whiteSpace=wrap;rounded=0;" vertex="1" parent="1">
          <mxGeometry x="75" y="420" width="240" height="30" as="geometry" />
        </mxCell>
        <mxCell id="CzOxM3u5IwbkqvRklhfL-42" value="&lt;font style=&quot;font-size: 16px;&quot;&gt;&amp;nbsp; IV_SAVER&lt;/font&gt;" style="swimlane;whiteSpace=wrap;html=1;align=left;startSize=30;" vertex="1" parent="1">
          <mxGeometry x="660" y="160" width="150" height="130" as="geometry" />
        </mxCell>
        <mxCell id="CzOxM3u5IwbkqvRklhfL-47" value="ADC_DATA_RDY_IN" style="text;html=1;align=center;verticalAlign=middle;whiteSpace=wrap;rounded=0;" vertex="1" parent="CzOxM3u5IwbkqvRklhfL-42">
          <mxGeometry y="30" width="135" height="30" as="geometry" />
        </mxCell>
        <mxCell id="CzOxM3u5IwbkqvRklhfL-49" value="ADC_DATA_IN" style="text;html=1;align=center;verticalAlign=middle;whiteSpace=wrap;rounded=0;" vertex="1" parent="CzOxM3u5IwbkqvRklhfL-42">
          <mxGeometry y="60" width="100" height="30" as="geometry" />
        </mxCell>
        <mxCell id="CzOxM3u5IwbkqvRklhfL-50" style="edgeStyle=orthogonalEdgeStyle;rounded=0;orthogonalLoop=1;jettySize=auto;html=1;" edge="1" parent="1" source="CzOxM3u5IwbkqvRklhfL-8" target="CzOxM3u5IwbkqvRklhfL-47">
          <mxGeometry relative="1" as="geometry" />
        </mxCell>
        <mxCell id="CzOxM3u5IwbkqvRklhfL-51" style="edgeStyle=orthogonalEdgeStyle;rounded=0;orthogonalLoop=1;jettySize=auto;html=1;" edge="1" parent="1" source="CzOxM3u5IwbkqvRklhfL-7" target="CzOxM3u5IwbkqvRklhfL-49">
          <mxGeometry relative="1" as="geometry" />
        </mxCell>
      </root>
    </mxGraphModel>
  </diagram>
</mxfile>
